<svg width="18" height="20" viewBox="0 0 18 20" fill="none" xmlns="http://www.w3.org/2000/svg">
<path d="M3.133 19.0003C1.955 19.0003 1 18.0203 1 16.8103V8.00828C1 7.34328 1.295 6.71328 1.8 6.29828L7.667 1.48028C8.04186 1.16986 8.5133 1 9 1C9.4867 1 9.95814 1.16986 10.333 1.48028L16.199 6.29828C16.705 6.71328 17 7.34328 17 8.00828V16.8103C17 18.0203 16.045 19.0003 14.867 19.0003H3.133Z" stroke="white" stroke-width="1.5" stroke-linecap="round" stroke-linejoin="round"/>
<path d="M6.5 19.0002V13.5002C6.5 12.9698 6.71071 12.4611 7.08579 12.086C7.46086 11.711 7.96957 11.5002 8.5 11.5002H9.5C10.0304 11.5002 10.5391 11.711 10.9142 12.086C11.2893 12.4611 11.5 12.9698 11.5 13.5002V19.0002" stroke="white" stroke-width="1.5" stroke-linecap="round" stroke-linejoin="round"/>
</svg>
